<mxfile host="65bd71144e">
    <diagram id="bpkOkg_YQw8nwezcgyr8" name="Page-1">
        <mxGraphModel dx="2941" dy="1838" grid="1" gridSize="10" guides="1" tooltips="1" connect="1" arrows="1" fold="1" page="1" pageScale="1" pageWidth="850" pageHeight="1100" math="0" shadow="0">
            <root>
                <mxCell id="0"/>
                <mxCell id="1" parent="0"/>
                <mxCell id="143" value="&lt;font color=&quot;#000000&quot;&gt;Node: Linux&lt;/font&gt;" style="rounded=0;whiteSpace=wrap;html=1;fillColor=#647687;fontColor=#ffffff;strokeColor=#000000;verticalAlign=bottom;align=left;" vertex="1" parent="1">
                    <mxGeometry x="435" y="1155" width="235" height="195" as="geometry"/>
                </mxCell>
                <mxCell id="144" value="&lt;div style=&quot;&quot;&gt;&lt;font color=&quot;#000000&quot;&gt;Node: PostgreSQL&lt;/font&gt;&lt;/div&gt;" style="rounded=0;whiteSpace=wrap;html=1;fillColor=#647687;fontColor=#ffffff;strokeColor=#000000;align=left;verticalAlign=bottom;" vertex="1" parent="1">
                    <mxGeometry x="450" y="1175" width="200" height="145" as="geometry"/>
                </mxCell>
                <mxCell id="145" value="&lt;font style=&quot;font-size: 12px;&quot;&gt;Primary/Backup&lt;/font&gt;" style="rounded=0;whiteSpace=wrap;html=1;strokeColor=none;fontColor=#000000;labelBackgroundColor=none;fillColor=none;fontStyle=1;fontSize=14;verticalAlign=bottom;align=right;" vertex="1" parent="1">
                    <mxGeometry x="548.75" y="1287" width="120" height="60" as="geometry"/>
                </mxCell>
                <mxCell id="140" value="&lt;font color=&quot;#000000&quot;&gt;Node: Linux&lt;/font&gt;" style="rounded=0;whiteSpace=wrap;html=1;fillColor=#647687;fontColor=#ffffff;strokeColor=#000000;verticalAlign=bottom;align=left;" vertex="1" parent="1">
                    <mxGeometry x="148.25" y="1155" width="235" height="195" as="geometry"/>
                </mxCell>
                <mxCell id="141" value="&lt;div style=&quot;&quot;&gt;&lt;font color=&quot;#000000&quot;&gt;Node: PostgreSQL&lt;/font&gt;&lt;/div&gt;" style="rounded=0;whiteSpace=wrap;html=1;fillColor=#647687;fontColor=#ffffff;strokeColor=#000000;align=left;verticalAlign=bottom;" vertex="1" parent="1">
                    <mxGeometry x="163.25" y="1175" width="200" height="145" as="geometry"/>
                </mxCell>
                <mxCell id="142" value="&lt;font style=&quot;font-size: 12px;&quot;&gt;Primary/Backup&lt;/font&gt;" style="rounded=0;whiteSpace=wrap;html=1;strokeColor=none;fontColor=#000000;labelBackgroundColor=none;fillColor=none;fontStyle=1;fontSize=14;verticalAlign=bottom;align=right;" vertex="1" parent="1">
                    <mxGeometry x="262" y="1287" width="120" height="60" as="geometry"/>
                </mxCell>
                <mxCell id="137" value="&lt;font color=&quot;#000000&quot;&gt;Node: Linux&lt;/font&gt;" style="rounded=0;whiteSpace=wrap;html=1;fillColor=#647687;fontColor=#ffffff;strokeColor=#000000;verticalAlign=bottom;align=left;" vertex="1" parent="1">
                    <mxGeometry x="-132.5" y="1155" width="235" height="195" as="geometry"/>
                </mxCell>
                <mxCell id="138" value="&lt;div style=&quot;&quot;&gt;&lt;font color=&quot;#000000&quot;&gt;Node: PostgreSQL&lt;/font&gt;&lt;/div&gt;" style="rounded=0;whiteSpace=wrap;html=1;fillColor=#647687;fontColor=#ffffff;strokeColor=#000000;align=left;verticalAlign=bottom;" vertex="1" parent="1">
                    <mxGeometry x="-117.5" y="1175" width="200" height="145" as="geometry"/>
                </mxCell>
                <mxCell id="139" value="&lt;font style=&quot;font-size: 12px;&quot;&gt;Primary/Backup&lt;/font&gt;" style="rounded=0;whiteSpace=wrap;html=1;strokeColor=none;fontColor=#000000;labelBackgroundColor=none;fillColor=none;fontStyle=1;fontSize=14;verticalAlign=bottom;align=right;" vertex="1" parent="1">
                    <mxGeometry x="-18.75" y="1287" width="120" height="60" as="geometry"/>
                </mxCell>
                <mxCell id="134" value="&lt;font color=&quot;#000000&quot;&gt;Node: Linux&lt;/font&gt;" style="rounded=0;whiteSpace=wrap;html=1;fillColor=#647687;fontColor=#ffffff;strokeColor=#000000;verticalAlign=bottom;align=left;" vertex="1" parent="1">
                    <mxGeometry x="-457.5" y="1155" width="235" height="195" as="geometry"/>
                </mxCell>
                <mxCell id="135" value="&lt;div style=&quot;&quot;&gt;&lt;font color=&quot;#000000&quot;&gt;Node: PostgreSQL&lt;/font&gt;&lt;/div&gt;" style="rounded=0;whiteSpace=wrap;html=1;fillColor=#647687;fontColor=#ffffff;strokeColor=#000000;align=left;verticalAlign=bottom;" vertex="1" parent="1">
                    <mxGeometry x="-442.5" y="1175" width="200" height="145" as="geometry"/>
                </mxCell>
                <mxCell id="136" value="&lt;font style=&quot;font-size: 12px;&quot;&gt;Primary/Backup&lt;/font&gt;" style="rounded=0;whiteSpace=wrap;html=1;strokeColor=none;fontColor=#000000;labelBackgroundColor=none;fillColor=none;fontStyle=1;fontSize=14;verticalAlign=bottom;align=right;" vertex="1" parent="1">
                    <mxGeometry x="-343.75" y="1287" width="120" height="60" as="geometry"/>
                </mxCell>
                <mxCell id="124" value="&lt;font color=&quot;#000000&quot;&gt;Node: Linux&lt;/font&gt;" style="rounded=0;whiteSpace=wrap;html=1;fillColor=#647687;fontColor=#ffffff;strokeColor=#000000;verticalAlign=bottom;align=left;" vertex="1" parent="1">
                    <mxGeometry x="-848.75" y="920" width="235" height="170" as="geometry"/>
                </mxCell>
                <mxCell id="125" value="&lt;div style=&quot;&quot;&gt;&lt;font color=&quot;#000000&quot;&gt;Node: RabbitMQ&lt;/font&gt;&lt;/div&gt;" style="rounded=0;whiteSpace=wrap;html=1;fillColor=#647687;fontColor=#ffffff;strokeColor=#000000;align=left;verticalAlign=bottom;" vertex="1" parent="1">
                    <mxGeometry x="-833.75" y="940" width="200" height="120" as="geometry"/>
                </mxCell>
                <mxCell id="122" value="&lt;font color=&quot;#000000&quot;&gt;Node: Linux&lt;/font&gt;" style="rounded=0;whiteSpace=wrap;html=1;fillColor=#647687;fontColor=#ffffff;strokeColor=#000000;verticalAlign=bottom;align=left;" vertex="1" parent="1">
                    <mxGeometry x="-850" y="615" width="235" height="230" as="geometry"/>
                </mxCell>
                <mxCell id="123" value="&lt;div style=&quot;&quot;&gt;&lt;font color=&quot;#000000&quot;&gt;Node: Web server&lt;/font&gt;&lt;/div&gt;" style="rounded=0;whiteSpace=wrap;html=1;fillColor=#647687;fontColor=#ffffff;strokeColor=#000000;align=left;verticalAlign=bottom;" vertex="1" parent="1">
                    <mxGeometry x="-835" y="635" width="200" height="180" as="geometry"/>
                </mxCell>
                <mxCell id="119" value="&lt;font color=&quot;#000000&quot;&gt;Node:&amp;nbsp;&lt;/font&gt;&lt;span style=&quot;color: rgb(0, 0, 0);&quot;&gt;Linux&lt;/span&gt;" style="rounded=0;whiteSpace=wrap;html=1;fillColor=#647687;fontColor=#ffffff;strokeColor=#000000;verticalAlign=bottom;align=left;" vertex="1" parent="1">
                    <mxGeometry x="377.5" y="620" width="235" height="230" as="geometry"/>
                </mxCell>
                <mxCell id="120" value="&lt;div style=&quot;&quot;&gt;&lt;font color=&quot;#000000&quot;&gt;Node: Web server&lt;/font&gt;&lt;/div&gt;" style="rounded=0;whiteSpace=wrap;html=1;fillColor=#647687;fontColor=#ffffff;strokeColor=#000000;align=left;verticalAlign=bottom;" vertex="1" parent="1">
                    <mxGeometry x="392.5" y="640" width="200" height="180" as="geometry"/>
                </mxCell>
                <mxCell id="116" value="&lt;font color=&quot;#000000&quot;&gt;Node:&amp;nbsp;&lt;/font&gt;&lt;span style=&quot;color: rgb(0, 0, 0);&quot;&gt;Linux&lt;/span&gt;" style="rounded=0;whiteSpace=wrap;html=1;fillColor=#647687;fontColor=#ffffff;strokeColor=#000000;verticalAlign=bottom;align=left;" vertex="1" parent="1">
                    <mxGeometry x="90.75" y="620" width="235" height="230" as="geometry"/>
                </mxCell>
                <mxCell id="117" value="&lt;div style=&quot;&quot;&gt;&lt;font color=&quot;#000000&quot;&gt;Node: Web server&lt;/font&gt;&lt;/div&gt;" style="rounded=0;whiteSpace=wrap;html=1;fillColor=#647687;fontColor=#ffffff;strokeColor=#000000;align=left;verticalAlign=bottom;" vertex="1" parent="1">
                    <mxGeometry x="105.75" y="640" width="200" height="180" as="geometry"/>
                </mxCell>
                <mxCell id="118" value="&lt;font style=&quot;font-size: 16px;&quot;&gt;x2&lt;/font&gt;" style="rounded=0;whiteSpace=wrap;html=1;strokeColor=none;fontColor=#000000;labelBackgroundColor=none;fillColor=none;fontStyle=1;fontSize=14;verticalAlign=bottom;align=right;" vertex="1" parent="1">
                    <mxGeometry x="205.75" y="788" width="120" height="60" as="geometry"/>
                </mxCell>
                <mxCell id="113" value="&lt;font color=&quot;#000000&quot;&gt;Node: Linux&lt;/font&gt;" style="rounded=0;whiteSpace=wrap;html=1;fillColor=#647687;fontColor=#ffffff;strokeColor=#000000;verticalAlign=bottom;align=left;" vertex="1" parent="1">
                    <mxGeometry x="-190" y="620" width="235" height="230" as="geometry"/>
                </mxCell>
                <mxCell id="114" value="&lt;div style=&quot;&quot;&gt;&lt;font color=&quot;#000000&quot;&gt;Node: Web server&lt;/font&gt;&lt;/div&gt;" style="rounded=0;whiteSpace=wrap;html=1;fillColor=#647687;fontColor=#ffffff;strokeColor=#000000;align=left;verticalAlign=bottom;" vertex="1" parent="1">
                    <mxGeometry x="-175" y="640" width="200" height="180" as="geometry"/>
                </mxCell>
                <mxCell id="115" value="&lt;font style=&quot;font-size: 16px;&quot;&gt;x4&lt;/font&gt;" style="rounded=0;whiteSpace=wrap;html=1;strokeColor=none;fontColor=#000000;labelBackgroundColor=none;fillColor=none;fontStyle=1;fontSize=14;verticalAlign=bottom;align=right;" vertex="1" parent="1">
                    <mxGeometry x="-75" y="788" width="120" height="60" as="geometry"/>
                </mxCell>
                <mxCell id="108" value="&lt;font color=&quot;#000000&quot;&gt;Node: Linux&lt;/font&gt;" style="rounded=0;whiteSpace=wrap;html=1;fillColor=#647687;fontColor=#ffffff;strokeColor=#000000;verticalAlign=bottom;align=left;" vertex="1" parent="1">
                    <mxGeometry x="-467.5" y="620" width="235" height="230" as="geometry"/>
                </mxCell>
                <mxCell id="109" value="&lt;div style=&quot;&quot;&gt;&lt;font color=&quot;#000000&quot;&gt;Node: Web server&lt;/font&gt;&lt;/div&gt;" style="rounded=0;whiteSpace=wrap;html=1;fillColor=#647687;fontColor=#ffffff;strokeColor=#000000;align=left;verticalAlign=bottom;" vertex="1" parent="1">
                    <mxGeometry x="-452.5" y="640" width="200" height="180" as="geometry"/>
                </mxCell>
                <mxCell id="105" value="&lt;font color=&quot;#000000&quot;&gt;Node: Linux&lt;/font&gt;" style="rounded=0;whiteSpace=wrap;html=1;fillColor=#647687;fontColor=#ffffff;strokeColor=#000000;verticalAlign=bottom;align=left;" vertex="1" parent="1">
                    <mxGeometry x="-517.5" y="340" width="1170" height="180" as="geometry"/>
                </mxCell>
                <mxCell id="106" value="&lt;div style=&quot;&quot;&gt;&lt;font color=&quot;#000000&quot;&gt;Node: Web server&lt;/font&gt;&lt;/div&gt;" style="rounded=0;whiteSpace=wrap;html=1;fillColor=#647687;fontColor=#ffffff;strokeColor=#000000;align=left;verticalAlign=bottom;" vertex="1" parent="1">
                    <mxGeometry x="-487.5" y="360" width="1120" height="130" as="geometry"/>
                </mxCell>
                <mxCell id="103" value="&lt;font color=&quot;#000000&quot;&gt;Node: user's computer&lt;/font&gt;" style="rounded=0;whiteSpace=wrap;html=1;fillColor=#647687;fontColor=#ffffff;strokeColor=#000000;verticalAlign=bottom;align=left;" vertex="1" parent="1">
                    <mxGeometry x="377.5" width="235" height="270" as="geometry"/>
                </mxCell>
                <mxCell id="104" value="&lt;div style=&quot;&quot;&gt;&lt;font color=&quot;#000000&quot;&gt;Node: Web browser&lt;/font&gt;&lt;/div&gt;" style="rounded=0;whiteSpace=wrap;html=1;fillColor=#647687;fontColor=#ffffff;strokeColor=#000000;align=left;verticalAlign=bottom;" vertex="1" parent="1">
                    <mxGeometry x="392.5" y="20" width="200" height="219" as="geometry"/>
                </mxCell>
                <mxCell id="101" value="&lt;font color=&quot;#000000&quot;&gt;Node: user's computer&lt;/font&gt;" style="rounded=0;whiteSpace=wrap;html=1;fillColor=#647687;fontColor=#ffffff;strokeColor=#000000;verticalAlign=bottom;align=left;" vertex="1" parent="1">
                    <mxGeometry x="92.5" width="235" height="270" as="geometry"/>
                </mxCell>
                <mxCell id="102" value="&lt;div style=&quot;&quot;&gt;&lt;font color=&quot;#000000&quot;&gt;Node: Web browser&lt;/font&gt;&lt;/div&gt;" style="rounded=0;whiteSpace=wrap;html=1;fillColor=#647687;fontColor=#ffffff;strokeColor=#000000;align=left;verticalAlign=bottom;" vertex="1" parent="1">
                    <mxGeometry x="107.5" y="20" width="200" height="219" as="geometry"/>
                </mxCell>
                <mxCell id="99" value="&lt;font color=&quot;#000000&quot;&gt;Node: user's computer&lt;/font&gt;" style="rounded=0;whiteSpace=wrap;html=1;fillColor=#647687;fontColor=#ffffff;strokeColor=#000000;verticalAlign=bottom;align=left;" vertex="1" parent="1">
                    <mxGeometry x="-187.5" width="235" height="270" as="geometry"/>
                </mxCell>
                <mxCell id="100" value="&lt;div style=&quot;&quot;&gt;&lt;font color=&quot;#000000&quot;&gt;Node: Web browser&lt;/font&gt;&lt;/div&gt;" style="rounded=0;whiteSpace=wrap;html=1;fillColor=#647687;fontColor=#ffffff;strokeColor=#000000;align=left;verticalAlign=bottom;" vertex="1" parent="1">
                    <mxGeometry x="-172.5" y="20" width="200" height="219" as="geometry"/>
                </mxCell>
                <mxCell id="98" value="&lt;font color=&quot;#000000&quot;&gt;Node: user's computer&lt;/font&gt;" style="rounded=0;whiteSpace=wrap;html=1;fillColor=#647687;fontColor=#ffffff;strokeColor=#000000;verticalAlign=bottom;align=left;" vertex="1" parent="1">
                    <mxGeometry x="-467.5" width="235" height="270" as="geometry"/>
                </mxCell>
                <mxCell id="97" value="&lt;div style=&quot;&quot;&gt;&lt;font color=&quot;#000000&quot;&gt;Node: Web browser&lt;/font&gt;&lt;/div&gt;" style="rounded=0;whiteSpace=wrap;html=1;fillColor=#647687;fontColor=#ffffff;strokeColor=#000000;align=left;verticalAlign=bottom;" vertex="1" parent="1">
                    <mxGeometry x="-452.5" y="20" width="200" height="219" as="geometry"/>
                </mxCell>
                <mxCell id="4" value="&lt;b&gt;&lt;font style=&quot;font-size: 14px;&quot;&gt;Портал преподавателя&lt;/font&gt;&lt;/b&gt;&lt;br&gt;[Container: Single page Application]&lt;br&gt;&lt;br&gt;&lt;br&gt;&lt;span style=&quot;font-size: 10px;&quot;&gt;Браузерное приложение, позволяющее просматривать и изменять данные о студенческой успеваемости&lt;/span&gt;" style="whiteSpace=wrap;html=1;aspect=fixed;fillColor=#0050ef;fontColor=#ffffff;strokeColor=#001DBC;" parent="1" vertex="1">
                    <mxGeometry x="-155" y="37.5" width="170" height="170" as="geometry"/>
                </mxCell>
                <mxCell id="5" value="&lt;b&gt;&lt;font style=&quot;font-size: 14px;&quot;&gt;Портал родителя&lt;/font&gt;&lt;/b&gt;&lt;br&gt;[Container: Single page Application]&lt;br&gt;&lt;br&gt;&lt;br&gt;&lt;span style=&quot;font-size: 10px;&quot;&gt;Браузерное приложение, позволяющее просматривать&amp;nbsp; данные о студенческой успеваемости&lt;/span&gt;" style="whiteSpace=wrap;html=1;aspect=fixed;fillColor=#0050ef;fontColor=#ffffff;strokeColor=#001DBC;" parent="1" vertex="1">
                    <mxGeometry x="123.25" y="37.5" width="170" height="170" as="geometry"/>
                </mxCell>
                <mxCell id="6" value="&lt;b style=&quot;font-size: 14px;&quot;&gt;Портал общения&lt;/b&gt;&lt;span style=&quot;font-size: 14px;&quot;&gt;&lt;b&gt;&lt;br&gt;&lt;/b&gt;&lt;/span&gt;[Container:Single page Application]&lt;br&gt;&lt;br&gt;&lt;br&gt;&lt;span style=&quot;font-size: 10px;&quot;&gt;Браузерное приложение, позволяющее родителям и преподавателям общаться между собой&lt;/span&gt;" style="whiteSpace=wrap;html=1;aspect=fixed;fillColor=#0050ef;fontColor=#ffffff;strokeColor=#001DBC;" parent="1" vertex="1">
                    <mxGeometry x="406.5" y="37.5" width="170" height="170" as="geometry"/>
                </mxCell>
                <mxCell id="8" value="&lt;font style=&quot;font-size: 14px;&quot;&gt;&lt;b&gt;API Gateway&lt;br&gt;&lt;/b&gt;&lt;/font&gt;[Container: Service]&lt;br&gt;&lt;br&gt;Сервис, отвечающий за контроль доступа и роутинг" style="rounded=0;whiteSpace=wrap;html=1;fillColor=#0050ef;fontColor=#ffffff;strokeColor=#001DBC;" parent="1" vertex="1">
                    <mxGeometry x="-467.5" y="378" width="1080" height="82" as="geometry"/>
                </mxCell>
                <mxCell id="10" value="" style="endArrow=classic;html=1;fontSize=10;strokeColor=#FFFFFF;exitX=0.5;exitY=1;exitDx=0;exitDy=0;" parent="1" source="4" edge="1">
                    <mxGeometry width="50" height="50" relative="1" as="geometry">
                        <mxPoint x="40.5" y="300" as="sourcePoint"/>
                        <mxPoint x="-69.5" y="370" as="targetPoint"/>
                    </mxGeometry>
                </mxCell>
                <mxCell id="11" value="API calls to&lt;br&gt;[REST/HTTPS]&amp;nbsp;" style="edgeLabel;html=1;align=center;verticalAlign=middle;resizable=0;points=[];fontSize=12;fontColor=#FFFFFF;labelBackgroundColor=#333333;" parent="10" vertex="1" connectable="0">
                    <mxGeometry x="-0.3001" relative="1" as="geometry">
                        <mxPoint x="1" y="34" as="offset"/>
                    </mxGeometry>
                </mxCell>
                <mxCell id="15" value="" style="endArrow=classic;html=1;fontSize=10;strokeColor=#FFFFFF;exitX=0.5;exitY=1;exitDx=0;exitDy=0;" parent="1" source="5" edge="1">
                    <mxGeometry width="50" height="50" relative="1" as="geometry">
                        <mxPoint x="227.5" y="330" as="sourcePoint"/>
                        <mxPoint x="208.5" y="370" as="targetPoint"/>
                    </mxGeometry>
                </mxCell>
                <mxCell id="16" value="API calls to&lt;br&gt;[REST/HTTPS]&amp;nbsp;" style="edgeLabel;html=1;align=center;verticalAlign=middle;resizable=0;points=[];fontSize=12;fontColor=#FFFFFF;labelBackgroundColor=#333333;" parent="15" vertex="1" connectable="0">
                    <mxGeometry x="-0.3001" relative="1" as="geometry">
                        <mxPoint x="1" y="34" as="offset"/>
                    </mxGeometry>
                </mxCell>
                <mxCell id="17" value="" style="endArrow=classic;html=1;fontSize=10;strokeColor=#FFFFFF;exitX=0.5;exitY=1;exitDx=0;exitDy=0;" parent="1" source="6" edge="1">
                    <mxGeometry width="50" height="50" relative="1" as="geometry">
                        <mxPoint x="60.5" y="320" as="sourcePoint"/>
                        <mxPoint x="491.5" y="370" as="targetPoint"/>
                    </mxGeometry>
                </mxCell>
                <mxCell id="18" value="API calls to&lt;br&gt;[REST/HTTPS]&amp;nbsp;" style="edgeLabel;html=1;align=center;verticalAlign=middle;resizable=0;points=[];fontSize=12;fontColor=#FFFFFF;labelBackgroundColor=#333333;" parent="17" vertex="1" connectable="0">
                    <mxGeometry x="-0.3001" relative="1" as="geometry">
                        <mxPoint x="1" y="34" as="offset"/>
                    </mxGeometry>
                </mxCell>
                <mxCell id="20" value="&lt;b style=&quot;font-size: 14px;&quot;&gt;API отчетов&lt;br&gt;&lt;/b&gt;[Container: Service]&lt;br&gt;&lt;br&gt;- Генерация отчетов&lt;br&gt;" style="rounded=0;whiteSpace=wrap;html=1;fillColor=#0050ef;fontColor=#ffffff;strokeColor=#001DBC;" parent="1" vertex="1">
                    <mxGeometry x="-437.5" y="658" width="170" height="130" as="geometry"/>
                </mxCell>
                <mxCell id="22" value="&lt;b style=&quot;font-size: 14px;&quot;&gt;API форумов&lt;br&gt;&lt;/b&gt;[Container: Service]&lt;br&gt;&lt;br&gt;- Управление сообщениями&lt;br&gt;- Поиск по сообщениям" style="rounded=0;whiteSpace=wrap;html=1;fillColor=#0050ef;fontColor=#ffffff;strokeColor=#001DBC;" parent="1" vertex="1">
                    <mxGeometry x="120.75" y="658" width="172.5" height="130" as="geometry"/>
                </mxCell>
                <mxCell id="23" value="&lt;b style=&quot;font-size: 14px;&quot;&gt;API студенческой успеваемости&lt;br&gt;&lt;/b&gt;[Container: Service]&lt;br&gt;&lt;br&gt;- Управление данными об успеваемости" style="rounded=0;whiteSpace=wrap;html=1;fillColor=#0050ef;fontColor=#ffffff;strokeColor=#001DBC;" parent="1" vertex="1">
                    <mxGeometry x="-156" y="658" width="167" height="130" as="geometry"/>
                </mxCell>
                <mxCell id="26" value="" style="endArrow=classic;html=1;fontSize=10;strokeColor=#FFFFFF;entryX=0.5;entryY=0;entryDx=0;entryDy=0;exitX=0.105;exitY=1.031;exitDx=0;exitDy=0;exitPerimeter=0;" parent="1" edge="1" target="20" source="8">
                    <mxGeometry width="50" height="50" relative="1" as="geometry">
                        <mxPoint x="-177.5" y="460" as="sourcePoint"/>
                        <mxPoint x="-177.5" y="550" as="targetPoint"/>
                    </mxGeometry>
                </mxCell>
                <mxCell id="27" value="API calls to&lt;br&gt;[REST/HTTPS]&amp;nbsp;" style="edgeLabel;html=1;align=center;verticalAlign=middle;resizable=0;points=[];fontSize=12;fontColor=#FFFFFF;labelBackgroundColor=#333333;" parent="26" vertex="1" connectable="0">
                    <mxGeometry x="-0.3001" relative="1" as="geometry">
                        <mxPoint x="3" y="30" as="offset"/>
                    </mxGeometry>
                </mxCell>
                <mxCell id="28" value="&lt;b&gt;&lt;font style=&quot;font-size: 14px;&quot;&gt;Портал отчетов&amp;nbsp;&lt;/font&gt;&lt;/b&gt;&lt;br&gt;[Container: Single page Application]&lt;br&gt;&lt;br&gt;&lt;br&gt;&lt;span style=&quot;font-size: 10px;&quot;&gt;Браузерное приложение, позволяющее конфигурировать, запрашивать и просматривать отчеты&lt;/span&gt;" style="whiteSpace=wrap;html=1;aspect=fixed;fillColor=#0050ef;fontColor=#ffffff;strokeColor=#001DBC;" parent="1" vertex="1">
                    <mxGeometry x="-437.5" y="36" width="170" height="170" as="geometry"/>
                </mxCell>
                <mxCell id="29" value="БД готовых отчетов" style="shape=cylinder3;whiteSpace=wrap;html=1;boundedLbl=1;backgroundOutline=1;size=15;fontSize=14;fillColor=#0050ef;fontColor=#ffffff;strokeColor=#001DBC;" parent="1" vertex="1">
                    <mxGeometry x="-407.5" y="1190" width="115" height="100" as="geometry"/>
                </mxCell>
                <mxCell id="30" value="БД пользователей&lt;span style=&quot;color: rgba(0, 0, 0, 0); font-family: monospace; font-size: 0px; text-align: start;&quot;&gt;%3CmxGraphModel%3E%3Croot%3E%3CmxCell%20id%3D%220%22%2F%3E%3CmxCell%20id%3D%221%22%20parent%3D%220%22%2F%3E%3CmxCell%20id%3D%222%22%20value%3D%22%D0%91%D0%94%20%D0%B3%D0%BE%D1%82%D0%BE%D0%B2%D1%8B%D1%85%20%D0%BE%D1%82%D1%87%D0%B5%D1%82%D0%BE%D0%B2%22%20style%3D%22shape%3Dcylinder3%3BwhiteSpace%3Dwrap%3Bhtml%3D1%3BboundedLbl%3D1%3BbackgroundOutline%3D1%3Bsize%3D15%3BfontSize%3D14%3BfillColor%3D%230050ef%3BfontColor%3D%23ffffff%3BstrokeColor%3D%23001DBC%3B%22%20vertex%3D%221%22%20parent%3D%221%22%3E%3CmxGeometry%20x%3D%2215%22%20y%3D%22770%22%20width%3D%22115%22%20height%3D%22160%22%20as%3D%22geometry%22%2F%3E%3C%2FmxCell%3E%3C%2Froot%3E%3C%2FmxGraphModel%3E&lt;/span&gt;" style="shape=cylinder3;whiteSpace=wrap;html=1;boundedLbl=1;backgroundOutline=1;size=15;fontSize=14;fillColor=#0050ef;fontColor=#ffffff;strokeColor=#001DBC;" parent="1" vertex="1">
                    <mxGeometry x="477.5" y="1190" width="115" height="100" as="geometry"/>
                </mxCell>
                <mxCell id="31" value="БД студенческой успеваемости&lt;span style=&quot;color: rgba(0, 0, 0, 0); font-family: monospace; font-size: 0px; text-align: start;&quot;&gt;%3CmxGraphModel%3E%3Croot%3E%3CmxCell%20id%3D%220%22%2F%3E%3CmxCell%20id%3D%221%22%20parent%3D%220%22%2F%3E%3CmxCell%20id%3D%222%22%20value%3D%22%D0%91%D0%94%20%D0%B3%D0%BE%D1%82%D0%BE%D0%B2%D1%8B%D1%85%20%D0%BE%D1%82%D1%87%D0%B5%D1%82%D0%BE%D0%B2%22%20style%3D%22shape%3Dcylinder3%3BwhiteSpace%3Dwrap%3Bhtml%3D1%3BboundedLbl%3D1%3BbackgroundOutline%3D1%3Bsize%3D15%3BfontSize%3D14%3BfillColor%3D%230050ef%3BfontColor%3D%23ffffff%3BstrokeColor%3D%23001DBC%3B%22%20vertex%3D%221%22%20parent%3D%221%22%3E%3CmxGeometry%20x%3D%2215%22%20y%3D%22770%22%20width%3D%22115%22%20height%3D%22160%22%20as%3D%22geometry%22%2F%3E%3C%2FmxCell%3E%3C%2Froot%3E%3C%2FmxGraphModel%3E&lt;/span&gt;" style="shape=cylinder3;whiteSpace=wrap;html=1;boundedLbl=1;backgroundOutline=1;size=15;fontSize=14;fillColor=#0050ef;fontColor=#ffffff;strokeColor=#001DBC;" parent="1" vertex="1">
                    <mxGeometry x="-90" y="1190" width="115" height="100" as="geometry"/>
                </mxCell>
                <mxCell id="45" value="&lt;b style=&quot;font-size: 14px;&quot;&gt;Сервис уведомлений&lt;br&gt;&lt;/b&gt;[Container: Service]&lt;br&gt;&lt;br&gt;- Направляет уведомления по электронной почте&amp;nbsp;" style="rounded=0;whiteSpace=wrap;html=1;fillColor=#0050ef;fontColor=#ffffff;strokeColor=#001DBC;" parent="1" vertex="1">
                    <mxGeometry x="-817.5" y="650" width="170" height="130" as="geometry"/>
                </mxCell>
                <mxCell id="52" value="Очередь уведомлений&lt;br&gt;&lt;span style=&quot;font-size: 12px;&quot;&gt;[Container: Queue]&lt;/span&gt;" style="rounded=1;whiteSpace=wrap;html=1;labelBackgroundColor=#;fontSize=14;fontColor=#ffffff;fillColor=#0050ef;strokeColor=#001DBC;" parent="1" vertex="1">
                    <mxGeometry x="-817.5" y="970" width="172.5" height="60" as="geometry"/>
                </mxCell>
                <mxCell id="53" value="" style="endArrow=classic;html=1;fontSize=10;exitX=0.5;exitY=1;exitDx=0;exitDy=0;entryX=1;entryY=0.5;entryDx=0;entryDy=0;rounded=1;dashed=1;strokeColor=#FFFFFF;startArrow=none;" parent="1" source="108" target="52" edge="1">
                    <mxGeometry width="50" height="50" relative="1" as="geometry">
                        <mxPoint x="442.5" y="708" as="sourcePoint"/>
                        <mxPoint x="442.75" y="887" as="targetPoint"/>
                        <Array as="points">
                            <mxPoint x="-349.5" y="920"/>
                            <mxPoint x="-349.5" y="1000"/>
                        </Array>
                    </mxGeometry>
                </mxCell>
                <mxCell id="55" value="" style="endArrow=classic;html=1;fontSize=10;exitX=0.5;exitY=1;exitDx=0;exitDy=0;rounded=1;dashed=1;strokeColor=#FFFFFF;entryX=1;entryY=0.5;entryDx=0;entryDy=0;" parent="1" source="22" target="52" edge="1">
                    <mxGeometry width="50" height="50" relative="1" as="geometry">
                        <mxPoint x="91.88" y="758" as="sourcePoint"/>
                        <mxPoint x="242.5" y="788" as="targetPoint"/>
                        <Array as="points">
                            <mxPoint x="207.5" y="1000"/>
                        </Array>
                    </mxGeometry>
                </mxCell>
                <mxCell id="56" value="&lt;span style=&quot;&quot;&gt;Sends&lt;br&gt;&lt;/span&gt;" style="edgeLabel;html=1;align=center;verticalAlign=middle;resizable=0;points=[];fontSize=12;fontColor=#FFFFFF;labelBackgroundColor=#333333;" parent="55" vertex="1" connectable="0">
                    <mxGeometry x="-0.3001" relative="1" as="geometry">
                        <mxPoint x="130" y="-91" as="offset"/>
                    </mxGeometry>
                </mxCell>
                <mxCell id="57" value="" style="endArrow=classic;html=1;fontSize=10;exitX=0.5;exitY=1;exitDx=0;exitDy=0;entryX=1;entryY=0.5;entryDx=0;entryDy=0;rounded=1;dashed=1;strokeColor=#FFFFFF;" parent="1" source="23" target="52" edge="1">
                    <mxGeometry width="50" height="50" relative="1" as="geometry">
                        <mxPoint x="37.5" y="768" as="sourcePoint"/>
                        <mxPoint x="-6.25" y="828" as="targetPoint"/>
                        <Array as="points">
                            <mxPoint x="-67.5" y="1000"/>
                        </Array>
                    </mxGeometry>
                </mxCell>
                <mxCell id="58" value="&lt;span style=&quot;&quot;&gt;Sends&lt;br&gt;&lt;/span&gt;" style="edgeLabel;html=1;align=center;verticalAlign=middle;resizable=0;points=[];fontSize=12;fontColor=#FFFFFF;labelBackgroundColor=#333333;" parent="57" vertex="1" connectable="0">
                    <mxGeometry x="-0.3001" relative="1" as="geometry">
                        <mxPoint x="54" y="-81" as="offset"/>
                    </mxGeometry>
                </mxCell>
                <mxCell id="59" value="" style="endArrow=classic;html=1;fontSize=10;exitX=0.5;exitY=0;exitDx=0;exitDy=0;entryX=0.5;entryY=1;entryDx=0;entryDy=0;rounded=1;dashed=1;strokeColor=#FFFFFF;" parent="1" source="52" target="45" edge="1">
                    <mxGeometry width="50" height="50" relative="1" as="geometry">
                        <mxPoint x="-292.5" y="752" as="sourcePoint"/>
                        <mxPoint x="-336.25" y="812" as="targetPoint"/>
                    </mxGeometry>
                </mxCell>
                <mxCell id="60" value="&lt;span style=&quot;&quot;&gt;to&lt;br&gt;&lt;/span&gt;" style="edgeLabel;html=1;align=center;verticalAlign=middle;resizable=0;points=[];fontSize=12;fontColor=#FFFFFF;labelBackgroundColor=#333333;" parent="59" vertex="1" connectable="0">
                    <mxGeometry x="-0.3001" relative="1" as="geometry">
                        <mxPoint x="-1" y="-14" as="offset"/>
                    </mxGeometry>
                </mxCell>
                <mxCell id="61" value="" style="endArrow=classic;html=1;fontSize=10;entryX=1;entryY=0.5;entryDx=0;entryDy=0;strokeColor=#FFFFFF;entryPerimeter=0;" parent="1" target="29" edge="1">
                    <mxGeometry width="50" height="50" relative="1" as="geometry">
                        <mxPoint x="-139.5" y="788" as="sourcePoint"/>
                        <mxPoint x="27.5" y="628" as="targetPoint"/>
                        <Array as="points">
                            <mxPoint x="-137.5" y="1240"/>
                        </Array>
                    </mxGeometry>
                </mxCell>
                <mxCell id="62" value="Reads from&amp;nbsp;&lt;br&gt;[SQL/TCP]&amp;nbsp;" style="edgeLabel;html=1;align=center;verticalAlign=middle;resizable=0;points=[];fontSize=12;fontColor=#FFFFFF;labelBackgroundColor=#333333;" parent="61" vertex="1" connectable="0">
                    <mxGeometry x="-0.3001" relative="1" as="geometry">
                        <mxPoint x="2" y="107" as="offset"/>
                    </mxGeometry>
                </mxCell>
                <mxCell id="63" value="" style="endArrow=classic;html=1;fontSize=10;entryX=0.316;entryY=0.015;entryDx=0;entryDy=0;strokeColor=#FFFFFF;exitX=0.75;exitY=1;exitDx=0;exitDy=0;entryPerimeter=0;" parent="1" source="20" target="31" edge="1">
                    <mxGeometry width="50" height="50" relative="1" as="geometry">
                        <mxPoint x="57.5" y="758" as="sourcePoint"/>
                        <mxPoint x="-130" y="988" as="targetPoint"/>
                        <Array as="points">
                            <mxPoint x="-309.5" y="1040"/>
                            <mxPoint x="-53.5" y="1040"/>
                        </Array>
                    </mxGeometry>
                </mxCell>
                <mxCell id="64" value="Reads from&lt;br&gt;[SQL/TCP]&amp;nbsp;" style="edgeLabel;html=1;align=center;verticalAlign=middle;resizable=0;points=[];fontSize=12;fontColor=#FFFFFF;labelBackgroundColor=#333333;" parent="63" vertex="1" connectable="0">
                    <mxGeometry x="-0.3001" relative="1" as="geometry">
                        <mxPoint x="121" y="20" as="offset"/>
                    </mxGeometry>
                </mxCell>
                <mxCell id="65" value="БД форумных сообщений&lt;span style=&quot;color: rgba(0, 0, 0, 0); font-family: monospace; font-size: 0px; text-align: start;&quot;&gt;%3CmxGraphModel%3E%3Croot%3E%3CmxCell%20id%3D%220%22%2F%3E%3CmxCell%20id%3D%221%22%20parent%3D%220%22%2F%3E%3CmxCell%20id%3D%222%22%20value%3D%22%D0%91%D0%94%20%D0%B3%D0%BE%D1%82%D0%BE%D0%B2%D1%8B%D1%85%20%D0%BE%D1%82%D1%87%D0%B5%D1%82%D0%BE%D0%B2%22%20style%3D%22shape%3Dcylinder3%3BwhiteSpace%3Dwrap%3Bhtml%3D1%3BboundedLbl%3D1%3BbackgroundOutline%3D1%3Bsize%3D15%3BfontSize%3D14%3BfillColor%3D%230050ef%3BfontColor%3D%23ffffff%3BstrokeColor%3D%23001DBC%3B%22%20vertex%3D%221%22%20parent%3D%221%22%3E%3CmxGeometry%20x%3D%2215%22%20y%3D%22770%22%20width%3D%22115%22%20height%3D%22160%22%20as%3D%22geometry%22%2F%3E%3C%2FmxCell%3E%3C%2Froot%3E%3C%2FmxGraphModel%3E&lt;/span&gt;" style="shape=cylinder3;whiteSpace=wrap;html=1;boundedLbl=1;backgroundOutline=1;size=15;fontSize=14;fillColor=#0050ef;fontColor=#ffffff;strokeColor=#001DBC;" parent="1" vertex="1">
                    <mxGeometry x="192.5" y="1190" width="115" height="100" as="geometry"/>
                </mxCell>
                <mxCell id="66" value="" style="endArrow=classic;html=1;fontSize=10;entryX=0.5;entryY=0;entryDx=0;entryDy=0;strokeColor=#FFFFFF;exitX=0.75;exitY=1;exitDx=0;exitDy=0;entryPerimeter=0;" parent="1" source="22" target="65" edge="1">
                    <mxGeometry width="50" height="50" relative="1" as="geometry">
                        <mxPoint x="57.5" y="758" as="sourcePoint"/>
                        <mxPoint x="-130" y="988" as="targetPoint"/>
                    </mxGeometry>
                </mxCell>
                <mxCell id="67" value="Reads from and writes to&lt;br&gt;[SQL/TCP]&amp;nbsp;" style="edgeLabel;html=1;align=center;verticalAlign=middle;resizable=0;points=[];fontSize=12;fontColor=#FFFFFF;labelBackgroundColor=#333333;" parent="66" vertex="1" connectable="0">
                    <mxGeometry x="-0.3001" relative="1" as="geometry">
                        <mxPoint y="175" as="offset"/>
                    </mxGeometry>
                </mxCell>
                <mxCell id="68" value="" style="endArrow=classic;html=1;fontSize=10;strokeColor=#FFFFFF;exitX=0.345;exitY=-0.043;exitDx=0;exitDy=0;entryX=0.5;entryY=0;entryDx=0;entryDy=0;entryPerimeter=0;exitPerimeter=0;" parent="1" source="115" target="31" edge="1">
                    <mxGeometry width="50" height="50" relative="1" as="geometry">
                        <mxPoint x="67.5" y="768" as="sourcePoint"/>
                        <mxPoint x="-27.5" y="1180" as="targetPoint"/>
                    </mxGeometry>
                </mxCell>
                <mxCell id="69" value="Reads from and writes to&lt;br&gt;[SQL/TCP]&amp;nbsp;" style="edgeLabel;html=1;align=center;verticalAlign=middle;resizable=0;points=[];fontSize=12;fontColor=#FFFFFF;labelBackgroundColor=#333333;" parent="68" vertex="1" connectable="0">
                    <mxGeometry x="-0.3001" relative="1" as="geometry">
                        <mxPoint x="77" y="185" as="offset"/>
                    </mxGeometry>
                </mxCell>
                <mxCell id="70" value="&lt;b style=&quot;font-size: 14px;&quot;&gt;API управление пользователями&lt;br&gt;&lt;/b&gt;[Container: Service]&lt;br&gt;&lt;br&gt;- Регистрация новых пользователей&lt;br&gt;- Выдача ролей и прав" style="rounded=0;whiteSpace=wrap;html=1;fillColor=#0050ef;fontColor=#ffffff;strokeColor=#001DBC;" parent="1" vertex="1">
                    <mxGeometry x="404" y="658" width="175" height="130" as="geometry"/>
                </mxCell>
                <mxCell id="71" value="" style="endArrow=classic;html=1;fontSize=10;entryX=0.5;entryY=0;entryDx=0;entryDy=0;strokeColor=#FFFFFF;exitX=0.625;exitY=1.014;exitDx=0;exitDy=0;exitPerimeter=0;" parent="1" source="8" target="22" edge="1">
                    <mxGeometry width="50" height="50" relative="1" as="geometry">
                        <mxPoint x="112.5" y="620" as="sourcePoint"/>
                        <mxPoint x="27.5" y="520" as="targetPoint"/>
                    </mxGeometry>
                </mxCell>
                <mxCell id="72" value="API calls to&lt;br&gt;[REST/HTTPS]&amp;nbsp;" style="edgeLabel;html=1;align=center;verticalAlign=middle;resizable=0;points=[];fontSize=12;fontColor=#FFFFFF;labelBackgroundColor=#333333;" parent="71" vertex="1" connectable="0">
                    <mxGeometry x="-0.3001" relative="1" as="geometry">
                        <mxPoint x="1" y="14" as="offset"/>
                    </mxGeometry>
                </mxCell>
                <mxCell id="73" value="" style="endArrow=classic;html=1;fontSize=10;entryX=0.5;entryY=0;entryDx=0;entryDy=0;strokeColor=#FFFFFF;exitX=0.365;exitY=1.031;exitDx=0;exitDy=0;exitPerimeter=0;" parent="1" target="23" edge="1" source="8">
                    <mxGeometry width="50" height="50" relative="1" as="geometry">
                        <mxPoint x="49.5" y="460" as="sourcePoint"/>
                        <mxPoint x="37.5" y="530" as="targetPoint"/>
                    </mxGeometry>
                </mxCell>
                <mxCell id="74" value="API calls to&lt;br&gt;[REST/HTTPS]&amp;nbsp;" style="edgeLabel;html=1;align=center;verticalAlign=middle;resizable=0;points=[];fontSize=12;fontColor=#FFFFFF;labelBackgroundColor=#333333;" parent="73" vertex="1" connectable="0">
                    <mxGeometry x="-0.3001" relative="1" as="geometry">
                        <mxPoint x="1" y="14" as="offset"/>
                    </mxGeometry>
                </mxCell>
                <mxCell id="75" value="" style="endArrow=classic;html=1;fontSize=10;entryX=0.5;entryY=0;entryDx=0;entryDy=0;strokeColor=#FFFFFF;exitX=0.89;exitY=0.997;exitDx=0;exitDy=0;exitPerimeter=0;" parent="1" source="8" target="70" edge="1">
                    <mxGeometry width="50" height="50" relative="1" as="geometry">
                        <mxPoint x="145" y="490" as="sourcePoint"/>
                        <mxPoint x="47.5" y="540" as="targetPoint"/>
                    </mxGeometry>
                </mxCell>
                <mxCell id="76" value="API calls to&lt;br&gt;[REST/HTTPS]&amp;nbsp;" style="edgeLabel;html=1;align=center;verticalAlign=middle;resizable=0;points=[];fontSize=12;fontColor=#FFFFFF;labelBackgroundColor=#333333;" parent="75" vertex="1" connectable="0">
                    <mxGeometry x="-0.3001" relative="1" as="geometry">
                        <mxPoint x="1" y="14" as="offset"/>
                    </mxGeometry>
                </mxCell>
                <mxCell id="77" value="" style="endArrow=classic;html=1;fontSize=10;entryX=0.5;entryY=0;entryDx=0;entryDy=0;strokeColor=#FFFFFF;exitX=0.75;exitY=1;exitDx=0;exitDy=0;entryPerimeter=0;" parent="1" source="70" target="30" edge="1">
                    <mxGeometry width="50" height="50" relative="1" as="geometry">
                        <mxPoint x="387.5" y="758" as="sourcePoint"/>
                        <mxPoint x="262.5" y="988" as="targetPoint"/>
                    </mxGeometry>
                </mxCell>
                <mxCell id="78" value="Reads from and writes to&lt;br&gt;[SQL/TCP]&amp;nbsp;" style="edgeLabel;html=1;align=center;verticalAlign=middle;resizable=0;points=[];fontSize=12;fontColor=#FFFFFF;labelBackgroundColor=#333333;" parent="77" vertex="1" connectable="0">
                    <mxGeometry x="-0.3001" relative="1" as="geometry">
                        <mxPoint x="-7" y="182" as="offset"/>
                    </mxGeometry>
                </mxCell>
                <mxCell id="91" value="" style="endArrow=classic;html=1;fontSize=10;strokeColor=#FFFFFF;exitX=0.5;exitY=1;exitDx=0;exitDy=0;entryX=0.107;entryY=-0.023;entryDx=0;entryDy=0;entryPerimeter=0;" parent="1" source="28" target="8" edge="1">
                    <mxGeometry width="50" height="50" relative="1" as="geometry">
                        <mxPoint x="50.5" y="310" as="sourcePoint"/>
                        <mxPoint x="-352.5" y="370" as="targetPoint"/>
                    </mxGeometry>
                </mxCell>
                <mxCell id="92" value="API calls to&lt;br&gt;[REST/HTTPS]&amp;nbsp;" style="edgeLabel;html=1;align=center;verticalAlign=middle;resizable=0;points=[];fontSize=12;fontColor=#FFFFFF;labelBackgroundColor=#333333;" parent="91" vertex="1" connectable="0">
                    <mxGeometry x="-0.3001" relative="1" as="geometry">
                        <mxPoint x="2" y="34" as="offset"/>
                    </mxGeometry>
                </mxCell>
                <mxCell id="93" value="" style="endArrow=classic;html=1;fontSize=10;exitX=0.5;exitY=1;exitDx=0;exitDy=0;entryX=1;entryY=0.5;entryDx=0;entryDy=0;rounded=1;dashed=1;strokeColor=#FFFFFF;" parent="1" source="70" target="52" edge="1">
                    <mxGeometry width="50" height="50" relative="1" as="geometry">
                        <mxPoint x="59" y="798" as="sourcePoint"/>
                        <mxPoint x="-315" y="928" as="targetPoint"/>
                        <Array as="points">
                            <mxPoint x="492.5" y="1000"/>
                        </Array>
                    </mxGeometry>
                </mxCell>
                <mxCell id="94" value="&lt;span style=&quot;&quot;&gt;Sends&lt;br&gt;&lt;/span&gt;" style="edgeLabel;html=1;align=center;verticalAlign=middle;resizable=0;points=[];fontSize=12;fontColor=#FFFFFF;labelBackgroundColor=#333333;" parent="93" vertex="1" connectable="0">
                    <mxGeometry x="-0.3001" relative="1" as="geometry">
                        <mxPoint x="207" y="-91" as="offset"/>
                    </mxGeometry>
                </mxCell>
                <mxCell id="107" value="&lt;font style=&quot;font-size: 16px;&quot;&gt;x3&lt;/font&gt;" style="rounded=0;whiteSpace=wrap;html=1;strokeColor=none;fontColor=#000000;labelBackgroundColor=none;fillColor=none;fontStyle=1;fontSize=14;verticalAlign=bottom;align=right;" vertex="1" parent="1">
                    <mxGeometry x="532.5" y="460" width="120" height="60" as="geometry"/>
                </mxCell>
                <mxCell id="110" value="&lt;font style=&quot;font-size: 16px;&quot;&gt;x2&lt;/font&gt;" style="rounded=0;whiteSpace=wrap;html=1;strokeColor=none;fontColor=#000000;labelBackgroundColor=none;fillColor=none;fontStyle=1;fontSize=14;verticalAlign=bottom;align=right;" vertex="1" parent="1">
                    <mxGeometry x="-352.5" y="790" width="115" height="58" as="geometry"/>
                </mxCell>
                <mxCell id="121" value="&lt;font style=&quot;font-size: 16px;&quot;&gt;x2&lt;/font&gt;" style="rounded=0;whiteSpace=wrap;html=1;strokeColor=none;fontColor=#000000;labelBackgroundColor=none;fillColor=none;fontStyle=1;fontSize=14;verticalAlign=bottom;align=right;" vertex="1" parent="1">
                    <mxGeometry x="492.5" y="788" width="120" height="60" as="geometry"/>
                </mxCell>
                <mxCell id="127" value="&lt;font style=&quot;font-size: 16px;&quot;&gt;x2&lt;/font&gt;" style="rounded=0;whiteSpace=wrap;html=1;strokeColor=none;fontColor=#000000;labelBackgroundColor=none;fillColor=none;fontStyle=1;fontSize=14;verticalAlign=bottom;align=right;" vertex="1" parent="1">
                    <mxGeometry x="-735" y="1030" width="120" height="60" as="geometry"/>
                </mxCell>
                <mxCell id="129" value="" style="endArrow=classic;html=1;fontSize=10;entryX=0.692;entryY=-0.031;entryDx=0;entryDy=0;strokeColor=#FFFFFF;exitX=0.75;exitY=1;exitDx=0;exitDy=0;entryPerimeter=0;" edge="1" parent="1" target="29">
                    <mxGeometry width="50" height="50" relative="1" as="geometry">
                        <mxPoint x="-327.375" y="788" as="sourcePoint"/>
                        <mxPoint x="-327.5" y="1210" as="targetPoint"/>
                    </mxGeometry>
                </mxCell>
                <mxCell id="130" value="Reads from and writes to&lt;br&gt;[SQL/TCP]&amp;nbsp;" style="edgeLabel;html=1;align=center;verticalAlign=middle;resizable=0;points=[];fontSize=12;fontColor=#FFFFFF;labelBackgroundColor=#333333;" vertex="1" connectable="0" parent="129">
                    <mxGeometry x="-0.3001" relative="1" as="geometry">
                        <mxPoint y="156" as="offset"/>
                    </mxGeometry>
                </mxCell>
                <mxCell id="133" value="&lt;span style=&quot;&quot;&gt;Sends&lt;br&gt;&lt;/span&gt;" style="edgeLabel;html=1;align=center;verticalAlign=middle;resizable=0;points=[];fontSize=12;fontColor=#FFFFFF;labelBackgroundColor=#333333;" vertex="1" connectable="0" parent="1">
                    <mxGeometry x="-377.4953316472623" y="920" as="geometry"/>
                </mxCell>
            </root>
        </mxGraphModel>
    </diagram>
</mxfile>